<svg width="98" height="19" viewBox="0 0 98 19" fill="none" xmlns="http://www.w3.org/2000/svg">
<path d="M6.292 15.984H10.868V19H4.264C3.12 17.9253 2.25333 16.5647 1.664 14.918C1.07467 13.2713 0.78 11.5813 0.78 9.848C0.78 8.09733 1.10933 6.416 1.768 4.804C2.42667 3.192 3.406 1.85733 4.706 0.799999H10.868V3.92H6.292C5.824 4.45733 5.41667 5.324 5.07 6.52C4.74067 7.716 4.576 8.86 4.576 9.952C4.576 11.044 4.74067 12.188 5.07 13.384C5.41667 14.58 5.824 15.4467 6.292 15.984ZM12.6713 19V5.714H15.1413L15.7913 7.118C16.4847 6.182 17.36 5.714 18.4173 5.714H19.4313V9.198H16.1293V19H12.6713ZM28.3443 19H22.6763C20.9429 17.388 20.0763 15.1867 20.0763 12.396C20.0763 10.992 20.2669 9.77 20.6483 8.73C21.0469 7.69 21.6709 6.68467 22.5203 5.714H28.6043C29.5056 6.754 30.1209 7.768 30.4503 8.756C30.7796 9.72667 30.9443 10.94 30.9443 12.396C30.9443 15.1867 30.0776 17.388 28.3443 19ZM24.5223 16.27H26.4983C27.1223 15.0567 27.4343 13.6787 27.4343 12.136C27.4343 10.5933 27.1136 9.36267 26.4723 8.444H24.5223C23.8983 9.328 23.5863 10.5847 23.5863 12.214C23.5863 13.826 23.8983 15.178 24.5223 16.27ZM36.0295 12.24C36.0295 12.968 36.1422 13.7133 36.3675 14.476C36.5928 15.2213 36.9048 15.8193 37.3035 16.27H41.2035V19H35.5095C33.4642 17.3707 32.4415 15.1173 32.4415 12.24C32.4415 9.36267 33.5335 7.18733 35.7175 5.714H41.2035V8.444H37.3035C36.4542 9.328 36.0295 10.5933 36.0295 12.24ZM50.3325 19H44.6645C42.9312 17.388 42.0645 15.1867 42.0645 12.396C42.0645 10.992 42.2552 9.77 42.6365 8.73C43.0352 7.69 43.6592 6.68467 44.5085 5.714H50.5925C51.4939 6.754 52.1092 7.768 52.4385 8.756C52.7679 9.72667 52.9325 10.94 52.9325 12.396C52.9325 15.1867 52.0659 17.388 50.3325 19ZM46.5105 16.27H48.4865C49.1105 15.0567 49.4225 13.6787 49.4225 12.136C49.4225 10.5933 49.1019 9.36267 48.4605 8.444H46.5105C45.8865 9.328 45.5745 10.5847 45.5745 12.214C45.5745 13.826 45.8865 15.178 46.5105 16.27ZM64.8558 19H62.2298L61.7618 18.064C61.3804 18.4107 61.0164 18.6533 60.6698 18.792C60.3404 18.9307 59.8378 19 59.1618 19H56.8998C56.1371 18.272 55.5304 17.3187 55.0798 16.14C54.6464 14.9613 54.4298 13.644 54.4298 12.188C54.4298 10.7147 54.6464 9.46667 55.0798 8.444C55.5304 7.42133 56.1631 6.51133 56.9778 5.714H59.2138C60.1324 5.714 60.8604 5.95667 61.3978 6.442V0.799999H64.8558V19ZM61.3978 8.444H58.9018C58.2604 9.536 57.9398 10.8793 57.9398 12.474C57.9398 14.0513 58.2518 15.3167 58.8758 16.27H61.3978V8.444ZM67.0828 19V5.714H70.5148V19H67.0828ZM67.0828 0.799999H70.5148V4.31H67.0828V0.799999ZM76.177 0.799999V19H72.745V0.799999H76.177ZM84.4131 8.444H82.4631C82.2031 8.756 81.9864 9.18933 81.8131 9.744C81.6571 10.2987 81.5791 10.836 81.5791 11.356H85.2971C85.3317 10.836 85.2624 10.2987 85.0891 9.744C84.9157 9.172 84.6904 8.73867 84.4131 8.444ZM87.9491 16.27V19H81.3451C80.1317 18.1853 79.2737 17.18 78.7711 15.984C78.2857 14.7707 78.0431 13.5487 78.0431 12.318C78.0431 9.47533 79.1177 7.274 81.2671 5.714H85.4791C86.6404 6.56333 87.4291 7.46467 87.8451 8.418C88.2611 9.37133 88.4691 10.3333 88.4691 11.304C88.4691 12.2747 88.3911 13.1067 88.2351 13.8H81.7611C81.8131 14.1987 81.9604 14.658 82.2031 15.178C82.4631 15.6807 82.7404 16.0447 83.0351 16.27H87.9491ZM91.1075 5.714H96.8535V8.444H92.7975L95.2675 12.11C96.3768 13.6873 96.9921 14.7707 97.1135 15.36C97.1828 15.6373 97.2175 15.9233 97.2175 16.218C97.2175 17.4487 96.7581 18.376 95.8395 19H89.2095V16.27H93.9675L91.1855 12.188C91.0641 11.9973 90.8735 11.7287 90.6135 11.382C90.3708 11.0353 90.1801 10.758 90.0415 10.55C89.9028 10.3247 89.8075 10.16 89.7555 10.056C89.7035 9.952 89.6341 9.822 89.5475 9.666C89.4608 9.49267 89.4001 9.34533 89.3655 9.224C89.2961 8.89467 89.2615 8.626 89.2615 8.418C89.2615 7.15267 89.8768 6.25133 91.1075 5.714Z" fill="#DDFCFF"/>
</svg>
