<svg width="45" height="45" viewBox="0 0 45 45" fill="none" xmlns="http://www.w3.org/2000/svg">
<g id="Component 3">
<path id="Vector" d="M25.4814 17.3321C27.142 15.8128 29.1198 15.0154 31.3646 14.8465C28.7017 13.6655 25.8924 13.1645 23.0018 13.1082C19.7174 13.0438 16.5211 13.5267 13.4688 14.8036C15.7513 14.9424 17.7554 15.7355 19.449 17.2725C21.1383 18.8056 22.1296 20.7181 22.4889 22.968C22.8582 20.7439 23.8223 18.8491 25.4814 17.3321Z" fill="#4769A0"/>
<path id="Vector_2" d="M31.8647 21.123C30.1811 21.123 28.8114 22.4744 28.8047 24.1397C28.7985 25.7989 30.1749 27.1789 31.8432 27.1836C33.5124 27.1894 34.8845 25.8203 34.8835 24.1526C34.8826 22.482 33.5277 21.123 31.8647 21.123ZM31.8647 25.6877C31.0011 25.6877 30.3079 25.0082 30.3098 24.166C30.3117 23.2908 30.9854 22.6152 31.8546 22.6142C32.7067 22.6142 33.4038 23.3104 33.3966 24.155C33.3875 25.001 32.7019 25.6877 31.8647 25.6877Z" fill="#4769A0"/>
<path id="Vector_3" d="M13.0933 16.7581C9.05394 16.7228 5.53181 20.0864 5.60261 24.369C5.66816 28.3639 8.96926 31.7495 13.177 31.7141C17.2924 31.6798 20.6006 28.3272 20.6083 24.2683C20.6145 20.0993 17.267 16.7581 13.0933 16.7581ZM13.2148 28.7891C10.5074 28.9122 8.32339 26.7601 8.32913 24.1466C8.3344 21.4988 10.5213 19.4737 12.9947 19.5185C15.5633 19.5157 17.6483 21.5847 17.6406 24.1447C17.6339 26.7372 15.5863 28.6812 13.2148 28.7891Z" fill="#4769A0"/>
<path id="Vector_4" d="M12.9545 21.1231C11.3126 21.1269 9.93711 22.5078 9.94142 24.1512C9.94572 25.8137 11.3193 27.1803 12.9909 27.1846C14.6524 27.1884 16.0274 25.8089 16.0241 24.1417C16.0188 22.4606 14.6553 21.1202 12.9545 21.1231ZM12.9918 25.7039C12.1115 25.7049 11.4307 25.0263 11.4317 24.1431C11.4317 23.2761 12.1106 22.6023 12.9875 22.6023C13.8525 22.6013 14.5467 23.2885 14.5505 24.1488C14.5539 25.002 13.8525 25.7011 12.9918 25.7039Z" fill="#4769A0"/>
<path id="Vector_5" d="M31.7065 16.7878C27.6055 16.8717 24.3962 20.1671 24.3594 24.2446C24.3594 28.3864 27.7284 31.7701 31.8658 31.7543C36.0204 31.7395 39.3737 28.4513 39.3713 24.2632C39.3684 19.9471 35.8587 16.7028 31.7065 16.7878ZM32.0447 28.7896C29.3474 28.8932 27.1907 26.7497 27.1912 24.151C27.1921 21.5223 29.3656 19.4738 31.851 19.5182C34.4215 19.5134 36.5036 21.5786 36.5036 24.1391C36.5036 26.7106 34.4574 28.6975 32.0447 28.7896Z" fill="#4769A0"/>
<path id="Vector_6" d="M34.6279 0.127135C29.1697 -0.176811 10.4276 0.159687 10.4276 0.159687C9.8247 0.131534 7.46474 0.62217 5.98663 1.44024C3.17319 2.99735 1.35889 5.62703 0.786685 7.25434C0.371791 8.43427 0.0978148 9.06816 0.0116381 10.3035C0.0145697 21.9861 0.000109795 28.6066 8.00575e-10 34.0171C-0.000109794 39.4277 4.86266 44.9816 11.1024 44.9816C17.3421 44.9816 34.2063 44.9816 34.2063 44.9816C38.0462 45.3219 45.0695 40.9185 44.9995 33.9611C44.9295 27.0037 44.9713 18.3893 44.9713 11.8778C44.9713 5.36642 40.0862 0.431081 34.6279 0.127135ZM40.997 26.5293C40.3942 28.9758 38.9891 30.8825 36.852 32.2329C35.3258 33.1992 33.6384 33.6587 31.8376 33.6683C31.0803 33.673 30.3273 33.5714 29.5881 33.381C27.7854 32.9143 26.2411 32.0187 24.9675 30.6616C24.7986 30.4846 24.6412 30.298 24.4623 30.0957C23.7892 31.0968 23.1265 32.0802 22.4481 33.0904C21.7726 32.0836 21.1186 31.1082 20.4665 30.1377C20.422 30.161 20.4091 30.1644 20.4 30.172C20.3857 30.184 20.3718 30.1992 20.3608 30.2131C18.8208 32.0268 16.8841 33.1386 14.5241 33.5103C13.2113 33.7184 11.9114 33.6435 10.6369 33.2932C8.82942 32.7984 7.29369 31.8469 6.05314 30.4431C4.84082 29.0712 4.08683 27.4793 3.80408 25.6685C3.47971 23.9778 3.87441 22.3497 3.97345 21.9537C4.25906 20.8046 4.75614 19.7496 5.43885 18.7786C5.48717 18.7094 5.50344 18.5886 5.48047 18.5066C5.20203 17.4868 4.72265 16.5607 4.16003 15.6726C4.01746 15.4469 3.84619 15.2384 3.68831 15.0222C3.68831 14.997 3.68831 14.9721 3.68831 14.9459C3.72036 14.9507 3.75098 14.9559 3.78256 14.9559C5.67375 14.9569 7.564 14.9578 9.45615 14.954C9.53796 14.954 9.62982 14.9206 9.69967 14.8748C11.0282 14.025 12.4444 13.3512 13.9323 12.8263C15.0039 12.4498 16.0995 12.1554 17.2166 11.9393C18.2983 11.7303 19.3853 11.5833 20.4837 11.5117C23.1629 11.3056 25.3029 11.5881 26.7276 11.7866C27.7768 11.935 28.8059 12.1974 29.8221 12.51C31.5951 13.0544 33.2681 13.8112 34.8421 14.7922C34.9517 14.8595 35.0981 14.903 35.2268 14.903C37.0749 14.9106 38.9231 14.9077 40.7702 14.9096C40.919 14.9096 41.0669 14.9244 41.2161 14.933C41.2161 14.9693 41.2219 14.9841 41.2152 14.9927C41.1291 15.1258 41.0415 15.2565 40.9554 15.3878C40.3282 16.3469 39.7924 17.3504 39.4761 18.4598C39.4417 18.5791 39.4335 18.6788 39.5153 18.7953C41.1606 21.153 41.685 23.7397 40.997 26.5293Z" fill="#4769A0"/>
</g>
</svg>
