<svg width="45" height="45" viewBox="0 0 45 45" fill="none" xmlns="http://www.w3.org/2000/svg">
<g id="Component 4">
<path id="Vector" d="M33.7634 0C35.3047 0 36.7563 0.295699 38.1183 0.887097C39.4803 1.47849 40.672 2.28495 41.6935 3.30645C42.7151 4.32796 43.5215 5.51971 44.1129 6.88172C44.7043 8.24373 45 9.69534 45 11.2366V33.7097C45 35.2509 44.7043 36.7115 44.1129 38.0914C43.5215 39.4713 42.7151 40.672 41.6935 41.6935C40.672 42.7151 39.4803 43.5215 38.1183 44.1129C36.7563 44.7043 35.3047 45 33.7634 45H11.2366C9.69534 45 8.24373 44.7043 6.88172 44.1129C5.51971 43.5215 4.32796 42.7151 3.30645 41.6935C2.28495 40.672 1.47849 39.4713 0.887097 38.0914C0.295699 36.7115 0 35.2509 0 33.7097V11.2366C0 9.69534 0.295699 8.24373 0.887097 6.88172C1.47849 5.51971 2.28495 4.32796 3.30645 3.30645C4.32796 2.28495 5.51971 1.47849 6.88172 0.887097C8.24373 0.295699 9.69534 0 11.2366 0H33.7634ZM33.2258 16.9355C34.2652 16.2186 35.1792 15.2867 35.9677 14.1398C35.466 14.3548 34.9552 14.5341 34.4355 14.6774C33.9158 14.8208 33.3871 14.9283 32.8495 15C34.0323 14.2473 34.8208 13.2258 35.2151 11.9355C34.1398 12.6165 32.9928 13.0645 31.7742 13.2796C30.6989 12.1326 29.3548 11.5591 27.7419 11.5591C26.9892 11.5591 26.2814 11.7025 25.6183 11.9892C24.9552 12.276 24.3817 12.6703 23.8978 13.172C23.414 13.6738 23.0287 14.2563 22.7419 14.9194C22.4552 15.5824 22.3118 16.2903 22.3118 17.043C22.3118 17.2581 22.3208 17.4642 22.3387 17.6613C22.3566 17.8584 22.3835 18.0645 22.4194 18.2796C20.1613 18.172 18.0645 17.6075 16.129 16.586C14.1935 15.5645 12.5448 14.2294 11.1828 12.5806C10.681 13.405 10.4301 14.319 10.4301 15.3226C10.4301 16.2545 10.6541 17.1147 11.1021 17.9032C11.5502 18.6918 12.1326 19.3369 12.8495 19.8387C12.4194 19.8387 11.9982 19.776 11.586 19.6505C11.1738 19.5251 10.7706 19.3728 10.3763 19.1935V19.2473C10.3763 20.5735 10.7975 21.7294 11.6398 22.7151C12.4821 23.7007 13.5305 24.3369 14.7849 24.6237C14.2832 24.7312 13.7993 24.7849 13.3333 24.7849H12.8226L12.3118 24.6774C12.6702 25.7885 13.3065 26.6935 14.2204 27.3925C15.1344 28.0914 16.2007 28.4588 17.4194 28.4946C16.4875 29.2115 15.4391 29.7849 14.2742 30.2151C13.1093 30.6452 11.8996 30.8602 10.6452 30.8602C10.3943 30.8602 10.1613 30.8513 9.94624 30.8333C9.73118 30.8154 9.51613 30.7885 9.30107 30.7527C10.5197 31.5412 11.8369 32.1505 13.2527 32.5806C14.6685 33.0108 16.147 33.2258 17.6882 33.2258C20.1971 33.2258 22.4194 32.7509 24.3548 31.8011C26.2903 30.8513 27.9122 29.6326 29.2204 28.1452C30.5287 26.6577 31.5233 24.991 32.2043 23.1452C32.8853 21.2993 33.2258 19.4624 33.2258 17.6344V16.9355Z" fill="#4769A0"/>
</g>
</svg>
