<svg width="45" height="45" viewBox="0 0 45 45" fill="none" xmlns="http://www.w3.org/2000/svg">
<g id="Component 2">
<path id="Vector" d="M30.1075 22.5269C30.1075 21.9176 30.0179 21.2545 29.8387 20.5376H32.0968V31.3979C32.0968 31.6846 31.9982 31.9176 31.8011 32.0968C31.6039 32.276 31.362 32.3656 31.0753 32.3656H13.3871C13.1004 32.3656 12.8674 32.276 12.6882 32.0968C12.509 31.9176 12.4194 31.6846 12.4194 31.3979V20.5376H14.6237C14.4444 21.2545 14.3548 21.9176 14.3548 22.5269C14.3548 23.6022 14.5609 24.6237 14.9731 25.5914C15.3853 26.5591 15.9498 27.3925 16.6667 28.0914C17.3835 28.7903 18.2258 29.3459 19.1935 29.7581C20.1613 30.1703 21.1828 30.3763 22.2581 30.3763C23.3333 30.3763 24.3548 30.1703 25.3226 29.7581C26.2903 29.3459 27.1237 28.7903 27.8226 28.0914C28.5215 27.3925 29.0771 26.5591 29.4892 25.5914C29.9014 24.6237 30.1075 23.6022 30.1075 22.5269ZM22.2581 27.4194C21.5771 27.4194 20.9319 27.2939 20.3226 27.043C19.7133 26.7921 19.1846 26.4427 18.7366 25.9946C18.2885 25.5466 17.9391 25.0269 17.6882 24.4355C17.4373 23.8441 17.3118 23.2079 17.3118 22.5269C17.3118 21.8459 17.4373 21.2007 17.6882 20.5914C17.9391 19.9821 18.2885 19.4534 18.7366 19.0054C19.1846 18.5573 19.7133 18.2079 20.3226 17.957C20.9319 17.7061 21.5771 17.5806 22.2581 17.5806C22.9391 17.5806 23.5753 17.7061 24.1667 17.957C24.7581 18.2079 25.2778 18.5573 25.7258 19.0054C26.1738 19.4534 26.5233 19.9821 26.7742 20.5914C27.0251 21.2007 27.1505 21.8459 27.1505 22.5269C27.1505 23.2079 27.0251 23.8441 26.7742 24.4355C26.5233 25.0269 26.1738 25.5466 25.7258 25.9946C25.2778 26.4427 24.7581 26.7921 24.1667 27.043C23.5753 27.2939 22.9391 27.4194 22.2581 27.4194ZM31.0753 12.6882C31.362 12.6882 31.6039 12.7778 31.8011 12.957C31.9982 13.1362 32.0968 13.3692 32.0968 13.6559V16.6129C32.0968 16.8996 31.9982 17.1326 31.8011 17.3118C31.6039 17.491 31.362 17.5806 31.0753 17.5806H28.1183C27.8315 17.5806 27.5986 17.491 27.4194 17.3118C27.2401 17.1326 27.1505 16.8996 27.1505 16.6129V13.6559C27.1505 13.3692 27.2401 13.1362 27.4194 12.957C27.5986 12.7778 27.8315 12.6882 28.1183 12.6882H31.0753ZM33.7097 0C35.2509 0 36.7115 0.295699 38.0914 0.887097C39.4713 1.47849 40.672 2.28495 41.6936 3.30645C42.7151 4.32796 43.5215 5.51971 44.1129 6.88172C44.7043 8.24373 45 9.69534 45 11.2366V33.7097C45 35.2509 44.7043 36.7115 44.1129 38.0914C43.5215 39.4713 42.7151 40.672 41.6936 41.6936C40.672 42.7151 39.4713 43.5215 38.0914 44.1129C36.7115 44.7043 35.2509 45 33.7097 45H11.2366C9.69534 45 8.24373 44.7043 6.88172 44.1129C5.51971 43.5215 4.32796 42.7151 3.30645 41.6936C2.28495 40.672 1.47849 39.4713 0.887097 38.0914C0.295699 36.7115 0 35.2509 0 33.7097V11.2366C0 9.69534 0.295699 8.24373 0.887097 6.88172C1.47849 5.51971 2.28495 4.32796 3.30645 3.30645C4.32796 2.28495 5.51971 1.47849 6.88172 0.887097C8.24373 0.295699 9.69534 0 11.2366 0H33.7097ZM35.0538 12.6882C35.0538 11.8638 34.767 11.1649 34.1936 10.5914C33.6201 10.0179 32.9211 9.73118 32.0968 9.73118H12.4194C11.595 9.73118 10.8961 10.0179 10.3226 10.5914C9.7491 11.1649 9.46237 11.8638 9.46237 12.6882V32.3656C9.46237 33.19 9.7491 33.8889 10.3226 34.4624C10.8961 35.0358 11.595 35.3226 12.4194 35.3226H32.0968C32.9211 35.3226 33.6201 35.0358 34.1936 34.4624C34.767 33.8889 35.0538 33.19 35.0538 32.3656V12.6882Z" fill="#4769A0"/>
</g>
</svg>
