<svg width="45" height="45" viewBox="0 0 45 45" fill="none" xmlns="http://www.w3.org/2000/svg">
<g id="Component 1">
<path id="Vector" d="M33.7634 0C35.3047 0 36.7563 0.295699 38.1183 0.887097C39.4803 1.47849 40.672 2.28495 41.6936 3.30645C42.7151 4.32796 43.5215 5.51971 44.1129 6.88172C44.7043 8.24373 45 9.69534 45 11.2366V33.7097C45 35.2509 44.7043 36.7115 44.1129 38.0914C43.5215 39.4713 42.7151 40.672 41.6936 41.6936C40.672 42.7151 39.4803 43.5215 38.1183 44.1129C36.7563 44.7043 35.3047 45 33.7634 45H11.2366C9.69534 45 8.24373 44.7043 6.88172 44.1129C5.51971 43.5215 4.32796 42.7151 3.30645 41.6936C2.28495 40.672 1.47849 39.4713 0.887097 38.0914C0.295699 36.7115 0 35.2509 0 33.7097V11.2366C0 9.69534 0.295699 8.24373 0.887097 6.88172C1.47849 5.51971 2.28495 4.32796 3.30645 3.30645C4.32796 2.28495 5.51971 1.47849 6.88172 0.887097C8.24373 0.295699 9.69534 0 11.2366 0H33.7634ZM30.914 9.83871H26.1828C25.2509 9.83871 24.3907 10 23.6022 10.3226C22.8136 10.6452 22.1326 11.0663 21.5591 11.586C20.9857 12.1057 20.5287 12.7061 20.1882 13.3871C19.8477 14.0681 19.6774 14.7491 19.6774 15.4301V18.2796H15.4839V23.871H19.6774V35.1613H25.3226V23.871H29.5161V18.2796H25.3226V16.8817C25.3226 16.4158 25.4928 16.0573 25.8333 15.8065C26.1738 15.5556 26.4695 15.4301 26.7204 15.4301H30.914V9.83871Z" fill="#4769A0"/>
</g>
</svg>
